<?xml version="1.0" encoding="UTF-8" standalone="no"?>
<!DOCTYPE svg PUBLIC "-//W3C//DTD SVG 1.1//EN"
 "http://www.w3.org/Graphics/SVG/1.1/DTD/svg11.dtd">
<!-- Generated by graphviz version 2.36.0 (20140111.2315)
 -->
<!-- Title: debug.bndrun Pages: 1 -->
<svg width="3659pt" height="476pt"
 viewBox="0.00 0.00 3658.80 476.00" xmlns="http://www.w3.org/2000/svg" xmlns:xlink="http://www.w3.org/1999/xlink">
<g id="graph0" class="graph" transform="scale(1 1) rotate(0) translate(4 472)">
<title>debug.bndrun</title>
<polygon fill="white" stroke="none" points="-4,4 -4,-472 3654.8,-472 3654.8,4 -4,4"/>
<!-- &lt;&lt;INITIAL&gt;&gt; -->
<g id="node1" class="node"><title>&lt;&lt;INITIAL&gt;&gt;</title>
<ellipse fill="none" stroke="black" cx="2175" cy="-450" rx="64.0172" ry="18"/>
<text text-anchor="middle" x="2175" y="-446.3" font-family="Times,serif" font-size="14.00">&lt;&lt;INITIAL&gt;&gt;</text>
</g>
<!-- org.apache.felix.eventadmin[28] -->
<g id="node2" class="node"><title>org.apache.felix.eventadmin[28]</title>
<ellipse fill="none" stroke="black" cx="2254" cy="-162" rx="129.008" ry="18"/>
<text text-anchor="middle" x="2254" y="-158.3" font-family="Times,serif" font-size="14.00">org.apache.felix.eventadmin[28]</text>
</g>
<!-- &lt;&lt;INITIAL&gt;&gt;&#45;&gt;org.apache.felix.eventadmin[28] -->
<g id="edge1" class="edge"><title>&lt;&lt;INITIAL&gt;&gt;&#45;&gt;org.apache.felix.eventadmin[28]</title>
<path fill="none" stroke="black" d="M2237.29,-445.632C2308.44,-440.331 2418.34,-427.206 2444,-396 2472.16,-361.748 2409.44,-291.98 2405,-288 2373.55,-259.778 2350.08,-278.293 2317,-252 2295.6,-234.994 2278.3,-208.863 2267.28,-189.307"/>
<polygon fill="black" stroke="black" points="2270.24,-187.418 2262.39,-180.305 2264.09,-190.762 2270.24,-187.418"/>
</g>
<!-- org.apache.felix.gogo.command[20] -->
<g id="node3" class="node"><title>org.apache.felix.gogo.command[20]</title>
<ellipse fill="none" stroke="black" cx="2035" cy="-378" rx="142.481" ry="18"/>
<text text-anchor="middle" x="2035" y="-374.3" font-family="Times,serif" font-size="14.00">org.apache.felix.gogo.command[20]</text>
</g>
<!-- &lt;&lt;INITIAL&gt;&gt;&#45;&gt;org.apache.felix.gogo.command[20] -->
<g id="edge2" class="edge"><title>&lt;&lt;INITIAL&gt;&gt;&#45;&gt;org.apache.felix.gogo.command[20]</title>
<path fill="none" stroke="black" d="M2144.97,-433.983C2125.28,-424.141 2099.26,-411.128 2077.47,-400.233"/>
<polygon fill="black" stroke="black" points="2078.93,-397.05 2068.42,-395.708 2075.8,-403.311 2078.93,-397.05"/>
</g>
<!-- osgi.enroute.iot.circuit.command[19] -->
<g id="node4" class="node"><title>osgi.enroute.iot.circuit.command[19]</title>
<ellipse fill="none" stroke="black" cx="243" cy="-378" rx="146.356" ry="18"/>
<text text-anchor="middle" x="243" y="-374.3" font-family="Times,serif" font-size="14.00">osgi.enroute.iot.circuit.command[19]</text>
</g>
<!-- &lt;&lt;INITIAL&gt;&gt;&#45;&gt;osgi.enroute.iot.circuit.command[19] -->
<g id="edge3" class="edge"><title>&lt;&lt;INITIAL&gt;&gt;&#45;&gt;osgi.enroute.iot.circuit.command[19]</title>
<path fill="none" stroke="black" d="M2111.7,-446.758C1907.25,-439.51 1246.08,-416.02 699,-396 595.993,-392.231 479.901,-387.901 390.633,-384.555"/>
<polygon fill="black" stroke="black" points="390.558,-381.05 380.434,-384.173 390.295,-388.045 390.558,-381.05"/>
</g>
<!-- org.apache.felix.metatype[29] -->
<g id="node5" class="node"><title>org.apache.felix.metatype[29]</title>
<ellipse fill="none" stroke="black" cx="2100" cy="-90" rx="120.359" ry="18"/>
<text text-anchor="middle" x="2100" y="-86.3" font-family="Times,serif" font-size="14.00">org.apache.felix.metatype[29]</text>
</g>
<!-- &lt;&lt;INITIAL&gt;&gt;&#45;&gt;org.apache.felix.metatype[29] -->
<g id="edge4" class="edge"><title>&lt;&lt;INITIAL&gt;&gt;&#45;&gt;org.apache.felix.metatype[29]</title>
<path fill="none" stroke="black" d="M2111.83,-446.688C2034.87,-442.389 1911.56,-430.212 1883,-396 1872.75,-383.718 1872.77,-372.303 1883,-360 1939.07,-292.571 2017.68,-388.59 2077,-324 2129.27,-267.08 2116.59,-166.194 2106.6,-118.04"/>
<polygon fill="black" stroke="black" points="2109.97,-117.078 2104.41,-108.061 2103.13,-118.579 2109.97,-117.078"/>
</g>
<!-- osgi.enroute.base.debug.provider[18] -->
<g id="node6" class="node"><title>osgi.enroute.base.debug.provider[18]</title>
<ellipse fill="none" stroke="black" cx="3473" cy="-90" rx="146.331" ry="18"/>
<text text-anchor="middle" x="3473" y="-86.3" font-family="Times,serif" font-size="14.00">osgi.enroute.base.debug.provider[18]</text>
</g>
<!-- &lt;&lt;INITIAL&gt;&gt;&#45;&gt;osgi.enroute.base.debug.provider[18] -->
<g id="edge5" class="edge"><title>&lt;&lt;INITIAL&gt;&gt;&#45;&gt;osgi.enroute.base.debug.provider[18]</title>
<path fill="none" stroke="black" d="M2239.31,-449.469C2517.95,-450.668 3607,-446.437 3607,-307 3607,-307 3607,-307 3607,-233 3607,-178.482 3554.11,-136.418 3514.78,-112.678"/>
<polygon fill="black" stroke="black" points="3516.52,-109.64 3506.12,-107.609 3512.99,-115.681 3516.52,-109.64"/>
</g>
<!-- org.apache.felix.gogo.shell[9] -->
<g id="node7" class="node"><title>org.apache.felix.gogo.shell[9]</title>
<ellipse fill="none" stroke="black" cx="2316" cy="-378" rx="119.384" ry="18"/>
<text text-anchor="middle" x="2316" y="-374.3" font-family="Times,serif" font-size="14.00">org.apache.felix.gogo.shell[9]</text>
</g>
<!-- &lt;&lt;INITIAL&gt;&gt;&#45;&gt;org.apache.felix.gogo.shell[9] -->
<g id="edge6" class="edge"><title>&lt;&lt;INITIAL&gt;&gt;&#45;&gt;org.apache.felix.gogo.shell[9]</title>
<path fill="none" stroke="black" d="M2205.25,-433.983C2225.21,-424.071 2251.66,-410.942 2273.7,-400"/>
<polygon fill="black" stroke="black" points="2275.45,-403.041 2282.85,-395.46 2272.33,-396.771 2275.45,-403.041"/>
</g>
<!-- osgi.enroute.webconsole.xray.provider[10] -->
<g id="node8" class="node"><title>osgi.enroute.webconsole.xray.provider[10]</title>
<ellipse fill="none" stroke="black" cx="2699" cy="-378" rx="167.528" ry="18"/>
<text text-anchor="middle" x="2699" y="-374.3" font-family="Times,serif" font-size="14.00">osgi.enroute.webconsole.xray.provider[10]</text>
</g>
<!-- &lt;&lt;INITIAL&gt;&gt;&#45;&gt;osgi.enroute.webconsole.xray.provider[10] -->
<g id="edge7" class="edge"><title>&lt;&lt;INITIAL&gt;&gt;&#45;&gt;osgi.enroute.webconsole.xray.provider[10]</title>
<path fill="none" stroke="black" d="M2231.58,-441.442C2316.65,-430.078 2479.16,-408.369 2588.33,-393.785"/>
<polygon fill="black" stroke="black" points="2588.94,-397.234 2598.39,-392.44 2588.01,-390.295 2588.94,-397.234"/>
</g>
<!-- osgi.enroute.iot.circuit.application[2] -->
<g id="node9" class="node"><title>osgi.enroute.iot.circuit.application[2]</title>
<ellipse fill="none" stroke="black" cx="1184" cy="-378" rx="146.356" ry="18"/>
<text text-anchor="middle" x="1184" y="-374.3" font-family="Times,serif" font-size="14.00">osgi.enroute.iot.circuit.application[2]</text>
</g>
<!-- &lt;&lt;INITIAL&gt;&gt;&#45;&gt;osgi.enroute.iot.circuit.application[2] -->
<g id="edge8" class="edge"><title>&lt;&lt;INITIAL&gt;&gt;&#45;&gt;osgi.enroute.iot.circuit.application[2]</title>
<path fill="none" stroke="black" d="M2113.38,-444.648C1955.62,-433.504 1534.31,-403.744 1317.29,-388.415"/>
<polygon fill="black" stroke="black" points="1317.34,-384.91 1307.11,-387.696 1316.84,-391.892 1317.34,-384.91"/>
</g>
<!-- osgi.enroute.iot.circuit.provider[22] -->
<g id="node10" class="node"><title>osgi.enroute.iot.circuit.provider[22]</title>
<ellipse fill="none" stroke="black" cx="412" cy="-306" rx="141.056" ry="18"/>
<text text-anchor="middle" x="412" y="-302.3" font-family="Times,serif" font-size="14.00">osgi.enroute.iot.circuit.provider[22]</text>
</g>
<!-- &lt;&lt;INITIAL&gt;&gt;&#45;&gt;osgi.enroute.iot.circuit.provider[22] -->
<g id="edge9" class="edge"><title>&lt;&lt;INITIAL&gt;&gt;&#45;&gt;osgi.enroute.iot.circuit.provider[22]</title>
<path fill="none" stroke="black" d="M2110.86,-448.214C1936.6,-445.608 1439.93,-435.047 1029,-396 840.296,-378.069 620.997,-343.015 501.294,-322.66"/>
<polygon fill="black" stroke="black" points="501.531,-319.15 491.085,-320.919 500.354,-326.05 501.531,-319.15"/>
</g>
<!-- org.apache.felix.log[30] -->
<g id="node11" class="node"><title>org.apache.felix.log[30]</title>
<ellipse fill="none" stroke="black" cx="2100" cy="-18" rx="98.212" ry="18"/>
<text text-anchor="middle" x="2100" y="-14.3" font-family="Times,serif" font-size="14.00">org.apache.felix.log[30]</text>
</g>
<!-- &lt;&lt;INITIAL&gt;&gt;&#45;&gt;org.apache.felix.log[30] -->
<g id="edge10" class="edge"><title>&lt;&lt;INITIAL&gt;&gt;&#45;&gt;org.apache.felix.log[30]</title>
<path fill="none" stroke="black" d="M2238.79,-448.001C2484.04,-443.943 3358.55,-427.391 3479,-396 3561.15,-374.592 3648,-391.89 3648,-307 3648,-307 3648,-307 3648,-161 3648,-120.458 3659.21,-97.8756 3628,-72 3573.47,-26.795 2547.44,-20.1272 2208.01,-19.1594"/>
<polygon fill="black" stroke="black" points="2207.93,-15.6593 2197.92,-19.1317 2207.91,-22.6592 2207.93,-15.6593"/>
</g>
<!-- org.apache.felix.eventadmin[28]&#45;&gt;org.apache.felix.metatype[29] -->
<g id="edge20" class="edge"><title>org.apache.felix.eventadmin[28]&#45;&gt;org.apache.felix.metatype[29]</title>
<path fill="none" stroke="black" d="M2217.89,-144.588C2196.17,-134.715 2168.33,-122.061 2145.16,-111.529"/>
<polygon fill="black" stroke="black" points="2146.43,-108.261 2135.88,-107.309 2143.54,-114.633 2146.43,-108.261"/>
</g>
<!-- org.apache.felix.eventadmin[28]&#45;&gt;org.apache.felix.log[30] -->
<g id="edge21" class="edge"><title>org.apache.felix.eventadmin[28]&#45;&gt;org.apache.felix.log[30]</title>
<path fill="none" stroke="black" d="M2253.52,-143.819C2252.09,-124.174 2246.93,-92.1387 2229,-72 2213.92,-55.063 2192.61,-43.4249 2171.64,-35.4756"/>
<polygon fill="black" stroke="black" points="2172.65,-32.1202 2162.06,-32.0769 2170.32,-38.7177 2172.65,-32.1202"/>
</g>
<!-- org.apache.felix.gogo.runtime[21] -->
<g id="node20" class="node"><title>org.apache.felix.gogo.runtime[21]</title>
<ellipse fill="none" stroke="black" cx="2261" cy="-306" rx="135.258" ry="18"/>
<text text-anchor="middle" x="2261" y="-302.3" font-family="Times,serif" font-size="14.00">org.apache.felix.gogo.runtime[21]</text>
</g>
<!-- org.apache.felix.gogo.command[20]&#45;&gt;org.apache.felix.gogo.runtime[21] -->
<g id="edge22" class="edge"><title>org.apache.felix.gogo.command[20]&#45;&gt;org.apache.felix.gogo.runtime[21]</title>
<path fill="none" stroke="black" d="M2086.28,-361.116C2120.21,-350.608 2164.84,-336.783 2200.51,-325.737"/>
<polygon fill="black" stroke="black" points="2201.79,-329.003 2210.31,-322.701 2199.72,-322.316 2201.79,-329.003"/>
</g>
<!-- osgi.enroute.iot.circuit.command[19]&#45;&gt;osgi.enroute.iot.circuit.provider[22] -->
<g id="edge27" class="edge"><title>osgi.enroute.iot.circuit.command[19]&#45;&gt;osgi.enroute.iot.circuit.provider[22]</title>
<path fill="none" stroke="black" d="M282.623,-360.588C306.673,-350.627 337.554,-337.835 363.115,-327.248"/>
<polygon fill="black" stroke="black" points="364.726,-330.369 372.625,-323.309 362.047,-323.902 364.726,-330.369"/>
</g>
<!-- osgi.enroute.dtos.bndlib.provider[26] -->
<g id="node14" class="node"><title>osgi.enroute.dtos.bndlib.provider[26]</title>
<ellipse fill="none" stroke="black" cx="576" cy="-234" rx="146.331" ry="18"/>
<text text-anchor="middle" x="576" y="-230.3" font-family="Times,serif" font-size="14.00">osgi.enroute.dtos.bndlib.provider[26]</text>
</g>
<!-- osgi.enroute.iot.circuit.command[19]&#45;&gt;osgi.enroute.dtos.bndlib.provider[26] -->
<g id="edge24" class="edge"><title>osgi.enroute.iot.circuit.command[19]&#45;&gt;osgi.enroute.dtos.bndlib.provider[26]</title>
<path fill="none" stroke="black" d="M241.425,-359.906C240.589,-339.73 242.603,-306.579 262,-288 276.675,-273.944 378.061,-258.552 461.72,-247.995"/>
<polygon fill="black" stroke="black" points="462.339,-251.445 471.828,-246.732 461.471,-244.499 462.339,-251.445"/>
</g>
<!-- osgi.enroute.scheduler.simple.provider[23] -->
<g id="node15" class="node"><title>osgi.enroute.scheduler.simple.provider[23]</title>
<ellipse fill="none" stroke="black" cx="167" cy="-234" rx="167.528" ry="18"/>
<text text-anchor="middle" x="167" y="-230.3" font-family="Times,serif" font-size="14.00">osgi.enroute.scheduler.simple.provider[23]</text>
</g>
<!-- osgi.enroute.iot.circuit.command[19]&#45;&gt;osgi.enroute.scheduler.simple.provider[23] -->
<g id="edge25" class="edge"><title>osgi.enroute.iot.circuit.command[19]&#45;&gt;osgi.enroute.scheduler.simple.provider[23]</title>
<path fill="none" stroke="black" d="M221.853,-360.092C211.185,-350.535 198.873,-337.762 191,-324 180.039,-304.84 173.922,-280.491 170.612,-262.105"/>
<polygon fill="black" stroke="black" points="174.036,-261.36 168.971,-252.054 167.128,-262.487 174.036,-261.36"/>
</g>
<!-- org.apache.felix.scr[27] -->
<g id="node17" class="node"><title>org.apache.felix.scr[27]</title>
<ellipse fill="none" stroke="black" cx="1137" cy="-162" rx="97.237" ry="18"/>
<text text-anchor="middle" x="1137" y="-158.3" font-family="Times,serif" font-size="14.00">org.apache.felix.scr[27]</text>
</g>
<!-- osgi.enroute.iot.circuit.command[19]&#45;&gt;org.apache.felix.scr[27] -->
<g id="edge26" class="edge"><title>osgi.enroute.iot.circuit.command[19]&#45;&gt;org.apache.felix.scr[27]</title>
<path fill="none" stroke="black" d="M237.038,-359.848C231.486,-340.524 226.093,-309.07 241,-288 268.766,-248.755 298.505,-270.202 343,-252 377.965,-237.696 383.449,-225.55 420,-216 532.56,-186.591 861.371,-171.909 1031.81,-166.1"/>
<polygon fill="black" stroke="black" points="1031.93,-169.599 1041.81,-165.764 1031.7,-162.602 1031.93,-169.599"/>
</g>
<!-- org.apache.felix.metatype[29]&#45;&gt;org.apache.felix.log[30] -->
<g id="edge59" class="edge"><title>org.apache.felix.metatype[29]&#45;&gt;org.apache.felix.log[30]</title>
<path fill="none" stroke="black" d="M2100,-71.6966C2100,-63.9827 2100,-54.7125 2100,-46.1124"/>
<polygon fill="black" stroke="black" points="2103.5,-46.1043 2100,-36.1043 2096.5,-46.1044 2103.5,-46.1043"/>
</g>
<!-- osgi.enroute.base.debug.provider[18]&#45;&gt;org.apache.felix.log[30] -->
<g id="edge29" class="edge"><title>osgi.enroute.base.debug.provider[18]&#45;&gt;org.apache.felix.log[30]</title>
<path fill="none" stroke="black" d="M3370.02,-77.1743C3350.76,-75.2327 3330.78,-73.4007 3312,-72 2904.38,-41.5964 2418.25,-26.8309 2206.9,-21.4664"/>
<polygon fill="black" stroke="black" points="2206.82,-17.9635 2196.74,-21.2104 2206.65,-24.9612 2206.82,-17.9635"/>
</g>
<!-- org.apache.felix.gogo.shell[9]&#45;&gt;org.apache.felix.gogo.runtime[21] -->
<g id="edge64" class="edge"><title>org.apache.felix.gogo.shell[9]&#45;&gt;org.apache.felix.gogo.runtime[21]</title>
<path fill="none" stroke="black" d="M2302.69,-360.055C2296.16,-351.753 2288.17,-341.584 2280.94,-332.378"/>
<polygon fill="black" stroke="black" points="2283.5,-329.976 2274.57,-324.275 2278,-334.301 2283.5,-329.976"/>
</g>
<!-- osgi.enroute.webconsole.xray.provider[10]&#45;&gt;org.apache.felix.log[30] -->
<g id="edge39" class="edge"><title>osgi.enroute.webconsole.xray.provider[10]&#45;&gt;org.apache.felix.log[30]</title>
<path fill="none" stroke="black" d="M2865.69,-376.3C3065.02,-373.69 3376.53,-363.282 3413,-324 3423.89,-312.275 3422.11,-301.151 3413,-288 3387.04,-250.546 3349.02,-284.418 3317,-252 3281.14,-215.694 3318.16,-175.49 3278,-144 3194.31,-78.3781 2476.84,-37.1953 2204.38,-23.7985"/>
<polygon fill="black" stroke="black" points="2204.25,-20.2881 2194.09,-23.2955 2203.91,-27.2798 2204.25,-20.2881"/>
</g>
<!-- org.apache.felix.configadmin[25] -->
<g id="node16" class="node"><title>org.apache.felix.configadmin[25]</title>
<ellipse fill="none" stroke="black" cx="1405" cy="-162" rx="131.408" ry="18"/>
<text text-anchor="middle" x="1405" y="-158.3" font-family="Times,serif" font-size="14.00">org.apache.felix.configadmin[25]</text>
</g>
<!-- osgi.enroute.webconsole.xray.provider[10]&#45;&gt;org.apache.felix.configadmin[25] -->
<g id="edge34" class="edge"><title>osgi.enroute.webconsole.xray.provider[10]&#45;&gt;org.apache.felix.configadmin[25]</title>
<path fill="none" stroke="black" d="M2564.39,-367.255C2525.55,-364.652 2483.1,-362.008 2444,-360 2388.59,-357.154 1489.18,-358.832 1446,-324 1406.15,-291.861 1401.85,-226.902 1402.96,-190.077"/>
<polygon fill="black" stroke="black" points="1406.46,-190.202 1403.42,-180.053 1399.46,-189.883 1406.46,-190.202"/>
</g>
<!-- osgi.enroute.webconsole.xray.provider[10]&#45;&gt;org.apache.felix.scr[27] -->
<g id="edge36" class="edge"><title>osgi.enroute.webconsole.xray.provider[10]&#45;&gt;org.apache.felix.scr[27]</title>
<path fill="none" stroke="black" d="M2564.72,-367.25C2525.79,-364.64 2483.22,-361.993 2444,-360 2329.86,-354.198 1523.58,-362.58 1416,-324 1391.23,-315.118 1391.1,-302.286 1369,-288 1305.42,-246.898 1227.11,-206.706 1179.67,-183.42"/>
<polygon fill="black" stroke="black" points="1181.13,-180.237 1170.61,-178.993 1178.05,-186.527 1181.13,-180.237"/>
</g>
<!-- org.apache.felix.http.servlet&#45;api[17] -->
<g id="node22" class="node"><title>org.apache.felix.http.servlet&#45;api[17]</title>
<ellipse fill="none" stroke="black" cx="2738" cy="-162" rx="141.531" ry="18"/>
<text text-anchor="middle" x="2738" y="-158.3" font-family="Times,serif" font-size="14.00">org.apache.felix.http.servlet&#45;api[17]</text>
</g>
<!-- osgi.enroute.webconsole.xray.provider[10]&#45;&gt;org.apache.felix.http.servlet&#45;api[17] -->
<g id="edge35" class="edge"><title>osgi.enroute.webconsole.xray.provider[10]&#45;&gt;org.apache.felix.http.servlet&#45;api[17]</title>
<path fill="none" stroke="black" d="M2726.04,-360.008C2737.89,-350.929 2750.56,-338.603 2757,-324 2776.45,-279.888 2761.37,-222.732 2749.25,-189.733"/>
<polygon fill="black" stroke="black" points="2752.49,-188.388 2745.63,-180.309 2745.95,-190.899 2752.49,-188.388"/>
</g>
<!-- osgi.enroute.web.simple.provider[12] -->
<g id="node23" class="node"><title>osgi.enroute.web.simple.provider[12]</title>
<ellipse fill="none" stroke="black" cx="2601" cy="-306" rx="147.305" ry="18"/>
<text text-anchor="middle" x="2601" y="-302.3" font-family="Times,serif" font-size="14.00">osgi.enroute.web.simple.provider[12]</text>
</g>
<!-- osgi.enroute.webconsole.xray.provider[10]&#45;&gt;osgi.enroute.web.simple.provider[12] -->
<g id="edge37" class="edge"><title>osgi.enroute.webconsole.xray.provider[10]&#45;&gt;osgi.enroute.web.simple.provider[12]</title>
<path fill="none" stroke="black" d="M2675.28,-360.055C2662.52,-350.941 2646.61,-339.577 2632.79,-329.708"/>
<polygon fill="black" stroke="black" points="2634.68,-326.753 2624.5,-323.789 2630.61,-332.449 2634.68,-326.753"/>
</g>
<!-- osgi.enroute.bostock.d3.webresource[11] -->
<g id="node24" class="node"><title>osgi.enroute.bostock.d3.webresource[11]</title>
<ellipse fill="none" stroke="black" cx="3244" cy="-306" rx="160.304" ry="18"/>
<text text-anchor="middle" x="3244" y="-302.3" font-family="Times,serif" font-size="14.00">osgi.enroute.bostock.d3.webresource[11]</text>
</g>
<!-- osgi.enroute.webconsole.xray.provider[10]&#45;&gt;osgi.enroute.bostock.d3.webresource[11] -->
<g id="edge38" class="edge"><title>osgi.enroute.webconsole.xray.provider[10]&#45;&gt;osgi.enroute.bostock.d3.webresource[11]</title>
<path fill="none" stroke="black" d="M2801.83,-363.792C2896.12,-351.681 3035.44,-333.788 3132.4,-321.334"/>
<polygon fill="black" stroke="black" points="3133.06,-324.778 3142.53,-320.033 3132.17,-317.835 3133.06,-324.778"/>
</g>
<!-- org.apache.felix.webconsole[13] -->
<g id="node25" class="node"><title>org.apache.felix.webconsole[13]</title>
<ellipse fill="none" stroke="black" cx="2935" cy="-306" rx="129.483" ry="18"/>
<text text-anchor="middle" x="2935" y="-302.3" font-family="Times,serif" font-size="14.00">org.apache.felix.webconsole[13]</text>
</g>
<!-- osgi.enroute.webconsole.xray.provider[10]&#45;&gt;org.apache.felix.webconsole[13] -->
<g id="edge40" class="edge"><title>osgi.enroute.webconsole.xray.provider[10]&#45;&gt;org.apache.felix.webconsole[13]</title>
<path fill="none" stroke="black" d="M2753.14,-360.941C2788.87,-350.343 2835.77,-336.431 2873,-325.39"/>
<polygon fill="black" stroke="black" points="2874.14,-328.703 2882.73,-322.503 2872.15,-321.992 2874.14,-328.703"/>
</g>
<!-- osgi.enroute.iot.circuit.application[2]&#45;&gt;osgi.enroute.iot.circuit.provider[22] -->
<g id="edge75" class="edge"><title>osgi.enroute.iot.circuit.application[2]&#45;&gt;osgi.enroute.iot.circuit.provider[22]</title>
<path fill="none" stroke="black" d="M1064.49,-367.573C940.137,-357.567 739.809,-340.896 567,-324 552.99,-322.63 538.276,-321.115 523.723,-319.571"/>
<polygon fill="black" stroke="black" points="523.998,-316.081 513.683,-318.499 523.255,-323.041 523.998,-316.081"/>
</g>
<!-- osgi.enroute.iot.circuit.application[2]&#45;&gt;org.apache.felix.scr[27] -->
<g id="edge73" class="edge"><title>osgi.enroute.iot.circuit.application[2]&#45;&gt;org.apache.felix.scr[27]</title>
<path fill="none" stroke="black" d="M1057.46,-368.982C900.58,-358.42 651.962,-339.382 638,-324 627.247,-312.152 627.124,-299.735 638,-288 709.656,-210.684 1029.12,-318.388 1111,-252 1129.12,-237.306 1135.06,-210.719 1136.8,-190.417"/>
<polygon fill="black" stroke="black" points="1140.31,-190.368 1137.38,-180.186 1133.32,-189.973 1140.31,-190.368"/>
</g>
<!-- osgi.enroute.iot.circuit.application[2]&#45;&gt;osgi.enroute.web.simple.provider[12] -->
<g id="edge74" class="edge"><title>osgi.enroute.iot.circuit.application[2]&#45;&gt;osgi.enroute.web.simple.provider[12]</title>
<path fill="none" stroke="black" d="M1324.19,-372.881C1551.33,-365.766 2013.83,-349.442 2405,-324 2428.74,-322.456 2454.07,-320.494 2478.37,-318.455"/>
<polygon fill="black" stroke="black" points="2478.68,-321.941 2488.35,-317.609 2478.09,-314.966 2478.68,-321.941"/>
</g>
<!-- osgi.enroute.easse.simple.adapter[6] -->
<g id="node28" class="node"><title>osgi.enroute.easse.simple.adapter[6]</title>
<ellipse fill="none" stroke="black" cx="1926" cy="-306" rx="142.481" ry="18"/>
<text text-anchor="middle" x="1926" y="-302.3" font-family="Times,serif" font-size="14.00">osgi.enroute.easse.simple.adapter[6]</text>
</g>
<!-- osgi.enroute.iot.circuit.application[2]&#45;&gt;osgi.enroute.easse.simple.adapter[6] -->
<g id="edge76" class="edge"><title>osgi.enroute.iot.circuit.application[2]&#45;&gt;osgi.enroute.easse.simple.adapter[6]</title>
<path fill="none" stroke="black" d="M1301.13,-367.187C1420.04,-357.053 1609.42,-340.445 1773,-324 1786.27,-322.666 1800.17,-321.207 1813.97,-319.721"/>
<polygon fill="black" stroke="black" points="1814.42,-323.193 1823.98,-318.636 1813.66,-316.234 1814.42,-323.193"/>
</g>
<!-- osgi.enroute.jsonrpc.simple.provider[5] -->
<g id="node31" class="node"><title>osgi.enroute.jsonrpc.simple.provider[5]</title>
<ellipse fill="none" stroke="black" cx="1610" cy="-306" rx="154.529" ry="18"/>
<text text-anchor="middle" x="1610" y="-302.3" font-family="Times,serif" font-size="14.00">osgi.enroute.jsonrpc.simple.provider[5]</text>
</g>
<!-- osgi.enroute.iot.circuit.application[2]&#45;&gt;osgi.enroute.jsonrpc.simple.provider[5] -->
<g id="edge69" class="edge"><title>osgi.enroute.iot.circuit.application[2]&#45;&gt;osgi.enroute.jsonrpc.simple.provider[5]</title>
<path fill="none" stroke="black" d="M1267.91,-363.212C1338.75,-351.572 1440.18,-334.905 1514.19,-322.743"/>
<polygon fill="black" stroke="black" points="1515.15,-326.133 1524.45,-321.058 1514.01,-319.225 1515.15,-326.133"/>
</g>
<!-- osgi.enroute.configurer.simple.provider[3] -->
<g id="node32" class="node"><title>osgi.enroute.configurer.simple.provider[3]</title>
<ellipse fill="none" stroke="black" cx="906" cy="-234" rx="165.128" ry="18"/>
<text text-anchor="middle" x="906" y="-230.3" font-family="Times,serif" font-size="14.00">osgi.enroute.configurer.simple.provider[3]</text>
</g>
<!-- osgi.enroute.iot.circuit.application[2]&#45;&gt;osgi.enroute.configurer.simple.provider[3] -->
<g id="edge72" class="edge"><title>osgi.enroute.iot.circuit.application[2]&#45;&gt;osgi.enroute.configurer.simple.provider[3]</title>
<path fill="none" stroke="black" d="M1041.67,-373.803C879.757,-368.662 633.919,-355.687 605,-324 594.214,-312.182 594.714,-300.255 605,-288 617.042,-273.652 707.384,-259.007 785.98,-248.758"/>
<polygon fill="black" stroke="black" points="786.522,-252.217 795.993,-247.467 785.628,-245.274 786.522,-252.217"/>
</g>
<!-- osgi.enroute.google.angular.webresource[7] -->
<g id="node33" class="node"><title>osgi.enroute.google.angular.webresource[7]</title>
<ellipse fill="none" stroke="black" cx="818" cy="-306" rx="170.402" ry="18"/>
<text text-anchor="middle" x="818" y="-302.3" font-family="Times,serif" font-size="14.00">osgi.enroute.google.angular.webresource[7]</text>
</g>
<!-- osgi.enroute.iot.circuit.application[2]&#45;&gt;osgi.enroute.google.angular.webresource[7] -->
<g id="edge70" class="edge"><title>osgi.enroute.iot.circuit.application[2]&#45;&gt;osgi.enroute.google.angular.webresource[7]</title>
<path fill="none" stroke="black" d="M1108.61,-362.581C1049.93,-351.359 968.368,-335.759 906.581,-323.942"/>
<polygon fill="black" stroke="black" points="906.932,-320.446 896.453,-322.005 905.617,-327.321 906.932,-320.446"/>
</g>
<!-- osgi.enroute.twitter.bootstrap.webresource[8] -->
<g id="node34" class="node"><title>osgi.enroute.twitter.bootstrap.webresource[8]</title>
<ellipse fill="none" stroke="black" cx="1184" cy="-306" rx="176.177" ry="18"/>
<text text-anchor="middle" x="1184" y="-302.3" font-family="Times,serif" font-size="14.00">osgi.enroute.twitter.bootstrap.webresource[8]</text>
</g>
<!-- osgi.enroute.iot.circuit.application[2]&#45;&gt;osgi.enroute.twitter.bootstrap.webresource[8] -->
<g id="edge71" class="edge"><title>osgi.enroute.iot.circuit.application[2]&#45;&gt;osgi.enroute.twitter.bootstrap.webresource[8]</title>
<path fill="none" stroke="black" d="M1184,-359.697C1184,-351.983 1184,-342.712 1184,-334.112"/>
<polygon fill="black" stroke="black" points="1187.5,-334.104 1184,-324.104 1180.5,-334.104 1187.5,-334.104"/>
</g>
<!-- osgi.enroute.iot.circuit.provider[22]&#45;&gt;org.apache.felix.eventadmin[28] -->
<g id="edge12" class="edge"><title>osgi.enroute.iot.circuit.provider[22]&#45;&gt;org.apache.felix.eventadmin[28]</title>
<path fill="none" stroke="black" d="M529.281,-295.942C564.254,-293.305 602.674,-290.47 638,-288 885.468,-270.696 947.61,-270.388 1195,-252 1538.44,-226.472 1944.06,-190.854 2138.6,-173.433"/>
<polygon fill="black" stroke="black" points="2139.19,-176.894 2148.84,-172.515 2138.56,-169.922 2139.19,-176.894"/>
</g>
<!-- osgi.enroute.iot.circuit.provider[22]&#45;&gt;osgi.enroute.dtos.bndlib.provider[26] -->
<g id="edge13" class="edge"><title>osgi.enroute.iot.circuit.provider[22]&#45;&gt;osgi.enroute.dtos.bndlib.provider[26]</title>
<path fill="none" stroke="black" d="M450.451,-288.588C473.705,-278.663 503.541,-265.927 528.293,-255.363"/>
<polygon fill="black" stroke="black" points="529.683,-258.575 537.506,-251.43 526.935,-252.137 529.683,-258.575"/>
</g>
<!-- osgi.enroute.iot.circuit.provider[22]&#45;&gt;osgi.enroute.scheduler.simple.provider[23] -->
<g id="edge14" class="edge"><title>osgi.enroute.iot.circuit.provider[22]&#45;&gt;osgi.enroute.scheduler.simple.provider[23]</title>
<path fill="none" stroke="black" d="M357.322,-289.378C320.529,-278.865 271.816,-264.947 232.884,-253.824"/>
<polygon fill="black" stroke="black" points="233.787,-250.442 223.21,-251.06 231.863,-257.173 233.787,-250.442"/>
</g>
<!-- osgi.enroute.iot.circuit.provider[22]&#45;&gt;org.apache.felix.configadmin[25] -->
<g id="edge15" class="edge"><title>osgi.enroute.iot.circuit.provider[22]&#45;&gt;org.apache.felix.configadmin[25]</title>
<path fill="none" stroke="black" d="M529.819,-296.107C728.576,-281.099 1109.23,-252.33 1111,-252 1197.47,-235.834 1294.58,-203.549 1352.71,-182.629"/>
<polygon fill="black" stroke="black" points="1354.18,-185.816 1362.39,-179.118 1351.8,-179.235 1354.18,-185.816"/>
</g>
<!-- osgi.enroute.iot.circuit.provider[22]&#45;&gt;org.apache.felix.scr[27] -->
<g id="edge16" class="edge"><title>osgi.enroute.iot.circuit.provider[22]&#45;&gt;org.apache.felix.scr[27]</title>
<path fill="none" stroke="black" d="M523.478,-294.947C550.178,-292.604 578.6,-290.163 605,-288 710.505,-279.356 989.118,-306.281 1080,-252 1103.28,-238.093 1118.68,-210.575 1127.54,-189.799"/>
<polygon fill="black" stroke="black" points="1130.9,-190.816 1131.37,-180.231 1124.4,-188.216 1130.9,-190.816"/>
</g>
<!-- org.osgi.util.promise[31] -->
<g id="node18" class="node"><title>org.osgi.util.promise[31]</title>
<ellipse fill="none" stroke="black" cx="331" cy="-90" rx="101.087" ry="18"/>
<text text-anchor="middle" x="331" y="-86.3" font-family="Times,serif" font-size="14.00">org.osgi.util.promise[31]</text>
</g>
<!-- osgi.enroute.iot.circuit.provider[22]&#45;&gt;org.osgi.util.promise[31] -->
<g id="edge17" class="edge"><title>osgi.enroute.iot.circuit.provider[22]&#45;&gt;org.osgi.util.promise[31]</title>
<path fill="none" stroke="black" d="M405.508,-287.849C391.438,-250.675 358.04,-162.439 341.152,-117.82"/>
<polygon fill="black" stroke="black" points="344.336,-116.346 337.523,-108.232 337.789,-118.824 344.336,-116.346"/>
</g>
<!-- slf4j.simple[1] -->
<g id="node12" class="node"><title>slf4j.simple[1]</title>
<ellipse fill="none" stroke="black" cx="3515" cy="-234" rx="64.0172" ry="18"/>
<text text-anchor="middle" x="3515" y="-230.3" font-family="Times,serif" font-size="14.00">slf4j.simple[1]</text>
</g>
<!-- slf4j.api[24] -->
<g id="node13" class="node"><title>slf4j.api[24]</title>
<ellipse fill="none" stroke="black" cx="3381" cy="-162" rx="55.3682" ry="18"/>
<text text-anchor="middle" x="3381" y="-158.3" font-family="Times,serif" font-size="14.00">slf4j.api[24]</text>
</g>
<!-- slf4j.simple[1]&#45;&gt;slf4j.api[24] -->
<g id="edge11" class="edge"><title>slf4j.simple[1]&#45;&gt;slf4j.api[24]</title>
<path fill="none" stroke="black" d="M3485.92,-217.811C3466.08,-207.443 3439.61,-193.617 3418.22,-182.445"/>
<polygon fill="black" stroke="black" points="3419.59,-179.208 3409.1,-177.68 3416.34,-185.412 3419.59,-179.208"/>
</g>
<!-- osgi.enroute.dtos.bndlib.provider[26]&#45;&gt;org.apache.felix.scr[27] -->
<g id="edge23" class="edge"><title>osgi.enroute.dtos.bndlib.provider[26]&#45;&gt;org.apache.felix.scr[27]</title>
<path fill="none" stroke="black" d="M674.682,-220.687C780.567,-207.475 947.189,-186.684 1048.83,-174.002"/>
<polygon fill="black" stroke="black" points="1049.27,-177.474 1058.76,-172.762 1048.41,-170.527 1049.27,-177.474"/>
</g>
<!-- osgi.enroute.scheduler.simple.provider[23]&#45;&gt;slf4j.api[24] -->
<g id="edge56" class="edge"><title>osgi.enroute.scheduler.simple.provider[23]&#45;&gt;slf4j.api[24]</title>
<path fill="none" stroke="black" d="M298.239,-222.817C337.388,-220.148 380.411,-217.578 420,-216 1054.66,-190.699 2645.3,-235.876 3278,-180 3293.26,-178.653 3309.66,-176.343 3324.8,-173.852"/>
<polygon fill="black" stroke="black" points="3325.77,-177.237 3335.04,-172.109 3324.6,-170.336 3325.77,-177.237"/>
</g>
<!-- osgi.enroute.scheduler.simple.provider[23]&#45;&gt;org.apache.felix.scr[27] -->
<g id="edge57" class="edge"><title>osgi.enroute.scheduler.simple.provider[23]&#45;&gt;org.apache.felix.scr[27]</title>
<path fill="none" stroke="black" d="M297.863,-222.746C327.19,-220.487 358.156,-218.134 387,-216 619.959,-198.768 893.717,-179.729 1037.4,-169.83"/>
<polygon fill="black" stroke="black" points="1037.78,-173.312 1047.51,-169.133 1037.3,-166.328 1037.78,-173.312"/>
</g>
<!-- osgi.enroute.scheduler.simple.provider[23]&#45;&gt;org.osgi.util.promise[31] -->
<g id="edge58" class="edge"><title>osgi.enroute.scheduler.simple.provider[23]&#45;&gt;org.osgi.util.promise[31]</title>
<path fill="none" stroke="black" d="M186.782,-215.871C215.998,-190.575 270.777,-143.144 303.768,-114.579"/>
<polygon fill="black" stroke="black" points="306.388,-116.94 311.657,-107.748 301.806,-111.648 306.388,-116.94"/>
</g>
<!-- org.osgi.util.function[32] -->
<g id="node19" class="node"><title>org.osgi.util.function[32]</title>
<ellipse fill="none" stroke="black" cx="258" cy="-18" rx="102.536" ry="18"/>
<text text-anchor="middle" x="258" y="-14.3" font-family="Times,serif" font-size="14.00">org.osgi.util.function[32]</text>
</g>
<!-- osgi.enroute.scheduler.simple.provider[23]&#45;&gt;org.osgi.util.function[32] -->
<g id="edge55" class="edge"><title>osgi.enroute.scheduler.simple.provider[23]&#45;&gt;org.osgi.util.function[32]</title>
<path fill="none" stroke="black" d="M171.01,-215.915C178.448,-185.804 195.937,-121.766 221,-72 225.846,-62.3784 232.26,-52.5198 238.385,-43.9551"/>
<polygon fill="black" stroke="black" points="241.224,-46.0029 244.346,-35.8784 235.592,-41.8465 241.224,-46.0029"/>
</g>
<!-- org.apache.felix.configadmin[25]&#45;&gt;org.apache.felix.log[30] -->
<g id="edge28" class="edge"><title>org.apache.felix.configadmin[25]&#45;&gt;org.apache.felix.log[30]</title>
<path fill="none" stroke="black" d="M1474.82,-146.734C1606.97,-119.735 1892.42,-61.4128 2026.99,-33.9177"/>
<polygon fill="black" stroke="black" points="2027.71,-37.3434 2036.8,-31.9123 2026.3,-30.4851 2027.71,-37.3434"/>
</g>
<!-- org.apache.felix.scr[27]&#45;&gt;org.apache.felix.metatype[29] -->
<g id="edge41" class="edge"><title>org.apache.felix.scr[27]&#45;&gt;org.apache.felix.metatype[29]</title>
<path fill="none" stroke="black" d="M1210.77,-150.24C1228.2,-147.944 1246.73,-145.701 1264,-144 1516.16,-119.161 1812.31,-103.583 1975.78,-96.1652"/>
<polygon fill="black" stroke="black" points="1976.04,-99.6571 1985.87,-95.71 1975.73,-92.6643 1976.04,-99.6571"/>
</g>
<!-- org.apache.felix.scr[27]&#45;&gt;org.apache.felix.log[30] -->
<g id="edge42" class="edge"><title>org.apache.felix.scr[27]&#45;&gt;org.apache.felix.log[30]</title>
<path fill="none" stroke="black" d="M1203.65,-148.792C1303.81,-130.674 1499.18,-96.2065 1666,-72 1783.72,-54.918 1919.95,-38.8889 2007.91,-29.0248"/>
<polygon fill="black" stroke="black" points="2008.31,-32.5017 2017.86,-27.9121 2007.54,-25.5451 2008.31,-32.5017"/>
</g>
<!-- org.apache.felix.scr[27]&#45;&gt;org.osgi.util.promise[31] -->
<g id="edge43" class="edge"><title>org.apache.felix.scr[27]&#45;&gt;org.osgi.util.promise[31]</title>
<path fill="none" stroke="black" d="M1051.13,-153.542C900.498,-140.46 589.551,-113.455 430.077,-99.6047"/>
<polygon fill="black" stroke="black" points="430.06,-96.0901 419.795,-98.7117 429.454,-103.064 430.06,-96.0901"/>
</g>
<!-- org.osgi.util.promise[31]&#45;&gt;org.osgi.util.function[32] -->
<g id="edge18" class="edge"><title>org.osgi.util.promise[31]&#45;&gt;org.osgi.util.function[32]</title>
<path fill="none" stroke="black" d="M313.329,-72.055C304.183,-63.2847 292.865,-52.4318 282.853,-42.8312"/>
<polygon fill="black" stroke="black" points="285.149,-40.184 275.509,-35.789 280.304,-45.2365 285.149,-40.184"/>
</g>
<!-- org.apache.felix.gogo.runtime[21]&#45;&gt;org.apache.felix.eventadmin[28] -->
<g id="edge19" class="edge"><title>org.apache.felix.gogo.runtime[21]&#45;&gt;org.apache.felix.eventadmin[28]</title>
<path fill="none" stroke="black" d="M2260.16,-287.871C2258.96,-263.67 2256.77,-219.211 2255.35,-190.393"/>
<polygon fill="black" stroke="black" points="2258.84,-190.005 2254.85,-180.189 2251.84,-190.349 2258.84,-190.005"/>
</g>
<!-- org.apache.felix.http.jetty[16] -->
<g id="node21" class="node"><title>org.apache.felix.http.jetty[16]</title>
<ellipse fill="none" stroke="black" cx="2446" cy="-234" rx="119.384" ry="18"/>
<text text-anchor="middle" x="2446" y="-230.3" font-family="Times,serif" font-size="14.00">org.apache.felix.http.jetty[16]</text>
</g>
<!-- org.apache.felix.http.jetty[16]&#45;&gt;org.apache.felix.eventadmin[28] -->
<g id="edge30" class="edge"><title>org.apache.felix.http.jetty[16]&#45;&gt;org.apache.felix.eventadmin[28]</title>
<path fill="none" stroke="black" d="M2402.43,-217.116C2374.18,-206.815 2337.18,-193.328 2307.2,-182.395"/>
<polygon fill="black" stroke="black" points="2308.32,-179.079 2297.73,-178.942 2305.92,-185.656 2308.32,-179.079"/>
</g>
<!-- org.apache.felix.http.jetty[16]&#45;&gt;org.apache.felix.metatype[29] -->
<g id="edge31" class="edge"><title>org.apache.felix.http.jetty[16]&#45;&gt;org.apache.felix.metatype[29]</title>
<path fill="none" stroke="black" d="M2440.52,-215.873C2433,-195.34 2417.46,-161.514 2392,-144 2362.56,-123.754 2279.33,-109.89 2209.22,-101.435"/>
<polygon fill="black" stroke="black" points="2209.32,-97.9226 2198.98,-100.227 2208.5,-104.874 2209.32,-97.9226"/>
</g>
<!-- org.apache.felix.http.jetty[16]&#45;&gt;org.apache.felix.log[30] -->
<g id="edge33" class="edge"><title>org.apache.felix.http.jetty[16]&#45;&gt;org.apache.felix.log[30]</title>
<path fill="none" stroke="black" d="M2445.7,-215.872C2444.46,-196.277 2439.64,-164.288 2422,-144 2362.9,-76.0372 2262.32,-44.7952 2189.27,-30.5796"/>
<polygon fill="black" stroke="black" points="2189.63,-27.0854 2179.15,-28.6846 2188.34,-33.9657 2189.63,-27.0854"/>
</g>
<!-- org.apache.felix.http.jetty[16]&#45;&gt;org.apache.felix.http.servlet&#45;api[17] -->
<g id="edge32" class="edge"><title>org.apache.felix.http.jetty[16]&#45;&gt;org.apache.felix.http.servlet&#45;api[17]</title>
<path fill="none" stroke="black" d="M2506.86,-218.411C2552.91,-207.371 2616.33,-192.167 2665.09,-180.478"/>
<polygon fill="black" stroke="black" points="2666.04,-183.849 2674.95,-178.114 2664.41,-177.042 2666.04,-183.849"/>
</g>
<!-- osgi.enroute.web.simple.provider[12]&#45;&gt;org.apache.felix.log[30] -->
<g id="edge80" class="edge"><title>osgi.enroute.web.simple.provider[12]&#45;&gt;org.apache.felix.log[30]</title>
<path fill="none" stroke="black" d="M2599.18,-287.772C2596.44,-268.664 2589.76,-237.677 2574,-216 2508.09,-125.362 2470.14,-115.836 2367,-72 2312.55,-48.86 2247.51,-35.6775 2195.26,-28.2474"/>
<polygon fill="black" stroke="black" points="2195.7,-24.7758 2185.32,-26.8813 2194.75,-31.7106 2195.7,-24.7758"/>
</g>
<!-- osgi.enroute.web.simple.provider[12]&#45;&gt;org.apache.felix.scr[27] -->
<g id="edge79" class="edge"><title>osgi.enroute.web.simple.provider[12]&#45;&gt;org.apache.felix.scr[27]</title>
<path fill="none" stroke="black" d="M2485.62,-294.81C2206.39,-270.05 1499.84,-206.798 1264,-180 1250.39,-178.454 1235.99,-176.668 1221.95,-174.848"/>
<polygon fill="black" stroke="black" points="1222.19,-171.349 1211.82,-173.519 1221.28,-178.289 1222.19,-171.349"/>
</g>
<!-- osgi.enroute.web.simple.provider[12]&#45;&gt;org.apache.felix.http.jetty[16] -->
<g id="edge78" class="edge"><title>osgi.enroute.web.simple.provider[12]&#45;&gt;org.apache.felix.http.jetty[16]</title>
<path fill="none" stroke="black" d="M2564.27,-288.411C2542.39,-278.533 2514.46,-265.919 2491.24,-255.43"/>
<polygon fill="black" stroke="black" points="2492.49,-252.155 2481.93,-251.228 2489.61,-258.534 2492.49,-252.155"/>
</g>
<!-- osgi.enroute.web.simple.provider[12]&#45;&gt;org.apache.felix.http.servlet&#45;api[17] -->
<g id="edge77" class="edge"><title>osgi.enroute.web.simple.provider[12]&#45;&gt;org.apache.felix.http.servlet&#45;api[17]</title>
<path fill="none" stroke="black" d="M2633.78,-288.32C2649.86,-279.082 2668.76,-266.528 2683,-252 2701.05,-233.577 2716,-208.207 2725.73,-189.266"/>
<polygon fill="black" stroke="black" points="2728.88,-190.792 2730.21,-180.281 2722.62,-187.671 2728.88,-190.792"/>
</g>
<!-- org.apache.felix.webconsole[13]&#45;&gt;org.apache.felix.http.jetty[16] -->
<g id="edge45" class="edge"><title>org.apache.felix.webconsole[13]&#45;&gt;org.apache.felix.http.jetty[16]</title>
<path fill="none" stroke="black" d="M2848.42,-292.606C2761.65,-280.185 2628.5,-261.125 2539.4,-248.37"/>
<polygon fill="black" stroke="black" points="2539.69,-244.876 2529.3,-246.924 2538.7,-251.806 2539.69,-244.876"/>
</g>
<!-- org.apache.felix.webconsole[13]&#45;&gt;org.apache.felix.http.servlet&#45;api[17] -->
<g id="edge44" class="edge"><title>org.apache.felix.webconsole[13]&#45;&gt;org.apache.felix.http.servlet&#45;api[17]</title>
<path fill="none" stroke="black" d="M2888.74,-289.178C2866.2,-280.23 2839.41,-267.676 2818,-252 2793.47,-234.039 2770.84,-207.529 2755.96,-188.113"/>
<polygon fill="black" stroke="black" points="2758.68,-185.908 2749.88,-180.01 2753.08,-190.11 2758.68,-185.908"/>
</g>
<!-- org.apache.commons.fileupload[14] -->
<g id="node26" class="node"><title>org.apache.commons.fileupload[14]</title>
<ellipse fill="none" stroke="black" cx="2969" cy="-234" rx="141.531" ry="18"/>
<text text-anchor="middle" x="2969" y="-230.3" font-family="Times,serif" font-size="14.00">org.apache.commons.fileupload[14]</text>
</g>
<!-- org.apache.felix.webconsole[13]&#45;&gt;org.apache.commons.fileupload[14] -->
<g id="edge46" class="edge"><title>org.apache.felix.webconsole[13]&#45;&gt;org.apache.commons.fileupload[14]</title>
<path fill="none" stroke="black" d="M2943.4,-287.697C2947.27,-279.728 2951.95,-270.1 2956.24,-261.264"/>
<polygon fill="black" stroke="black" points="2959.47,-262.629 2960.69,-252.104 2953.17,-259.57 2959.47,-262.629"/>
</g>
<!-- org.apache.servicemix.bundles.commons&#45;io[15] -->
<g id="node27" class="node"><title>org.apache.servicemix.bundles.commons&#45;io[15]</title>
<ellipse fill="none" stroke="black" cx="3084" cy="-162" rx="185.326" ry="18"/>
<text text-anchor="middle" x="3084" y="-158.3" font-family="Times,serif" font-size="14.00">org.apache.servicemix.bundles.commons&#45;io[15]</text>
</g>
<!-- org.apache.felix.webconsole[13]&#45;&gt;org.apache.servicemix.bundles.commons&#45;io[15] -->
<g id="edge47" class="edge"><title>org.apache.felix.webconsole[13]&#45;&gt;org.apache.servicemix.bundles.commons&#45;io[15]</title>
<path fill="none" stroke="black" d="M3014.9,-291.772C3058.4,-282.765 3105.96,-269.331 3119,-252 3133.44,-232.817 3120.4,-206.909 3106.32,-187.994"/>
<polygon fill="black" stroke="black" points="3109.03,-185.779 3100.08,-180.1 3103.53,-190.117 3109.03,-185.779"/>
</g>
<!-- org.apache.commons.fileupload[14]&#45;&gt;org.apache.felix.http.servlet&#45;api[17] -->
<g id="edge81" class="edge"><title>org.apache.commons.fileupload[14]&#45;&gt;org.apache.felix.http.servlet&#45;api[17]</title>
<path fill="none" stroke="black" d="M2916.87,-217.203C2882.33,-206.736 2836.83,-192.949 2800.37,-181.899"/>
<polygon fill="black" stroke="black" points="2800.92,-178.411 2790.34,-178.86 2798.89,-185.11 2800.92,-178.411"/>
</g>
<!-- org.apache.commons.fileupload[14]&#45;&gt;org.apache.servicemix.bundles.commons&#45;io[15] -->
<g id="edge82" class="edge"><title>org.apache.commons.fileupload[14]&#45;&gt;org.apache.servicemix.bundles.commons&#45;io[15]</title>
<path fill="none" stroke="black" d="M2996.55,-216.233C3011.8,-206.951 3030.95,-195.294 3047.44,-185.257"/>
<polygon fill="black" stroke="black" points="3049.56,-188.062 3056.28,-179.873 3045.92,-182.082 3049.56,-188.062"/>
</g>
<!-- osgi.enroute.easse.simple.adapter[6]&#45;&gt;org.apache.felix.eventadmin[28] -->
<g id="edge48" class="edge"><title>osgi.enroute.easse.simple.adapter[6]&#45;&gt;org.apache.felix.eventadmin[28]</title>
<path fill="none" stroke="black" d="M1963.95,-288.572C2024.22,-262.478 2141.69,-211.621 2207.13,-183.291"/>
<polygon fill="black" stroke="black" points="2208.61,-186.465 2216.39,-179.28 2205.83,-180.041 2208.61,-186.465"/>
</g>
<!-- osgi.enroute.easse.simple.adapter[6]&#45;&gt;org.apache.felix.log[30] -->
<g id="edge52" class="edge"><title>osgi.enroute.easse.simple.adapter[6]&#45;&gt;org.apache.felix.log[30]</title>
<path fill="none" stroke="black" d="M1924.2,-287.807C1920.79,-245.844 1917.9,-136.881 1971,-72 1985.16,-54.6953 2005.9,-42.9784 2026.62,-35.0698"/>
<polygon fill="black" stroke="black" points="2027.86,-38.3426 2036.11,-31.6977 2025.52,-31.7462 2027.86,-38.3426"/>
</g>
<!-- osgi.enroute.easse.simple.adapter[6]&#45;&gt;org.apache.felix.scr[27] -->
<g id="edge51" class="edge"><title>osgi.enroute.easse.simple.adapter[6]&#45;&gt;org.apache.felix.scr[27]</title>
<path fill="none" stroke="black" d="M1847.83,-290.931C1696.37,-263.673 1364.65,-203.97 1214.07,-176.871"/>
<polygon fill="black" stroke="black" points="1214.45,-173.382 1203.98,-175.055 1213.21,-180.271 1214.45,-173.382"/>
</g>
<!-- osgi.enroute.easse.simple.adapter[6]&#45;&gt;org.apache.felix.http.jetty[16] -->
<g id="edge50" class="edge"><title>osgi.enroute.easse.simple.adapter[6]&#45;&gt;org.apache.felix.http.jetty[16]</title>
<path fill="none" stroke="black" d="M2019.57,-292.405C2112.95,-279.834 2255.75,-260.611 2349.99,-247.925"/>
<polygon fill="black" stroke="black" points="2350.64,-251.368 2360.09,-246.565 2349.71,-244.431 2350.64,-251.368"/>
</g>
<!-- osgi.enroute.easse.simple.adapter[6]&#45;&gt;org.apache.felix.http.servlet&#45;api[17] -->
<g id="edge49" class="edge"><title>osgi.enroute.easse.simple.adapter[6]&#45;&gt;org.apache.felix.http.servlet&#45;api[17]</title>
<path fill="none" stroke="black" d="M2037.75,-294.798C2063.45,-292.509 2090.67,-290.129 2116,-288 2319.47,-270.902 2378.22,-309.961 2574,-252 2623.26,-237.416 2674.43,-206.746 2706.23,-185.517"/>
<polygon fill="black" stroke="black" points="2708.36,-188.307 2714.67,-179.801 2704.43,-182.511 2708.36,-188.307"/>
</g>
<!-- org.apache.felix.coordinator[4] -->
<g id="node29" class="node"><title>org.apache.felix.coordinator[4]</title>
<ellipse fill="none" stroke="black" cx="1121" cy="-90" rx="124.209" ry="18"/>
<text text-anchor="middle" x="1121" y="-86.3" font-family="Times,serif" font-size="14.00">org.apache.felix.coordinator[4]</text>
</g>
<!-- org.apache.felix.coordinator[4]&#45;&gt;org.apache.felix.log[30] -->
<g id="edge53" class="edge"><title>org.apache.felix.coordinator[4]&#45;&gt;org.apache.felix.log[30]</title>
<path fill="none" stroke="black" d="M1229.51,-81.2413C1420.89,-67.5571 1815.62,-39.3334 2000.45,-26.1182"/>
<polygon fill="black" stroke="black" points="2000.71,-29.6085 2010.43,-25.4042 2000.21,-22.6264 2000.71,-29.6085"/>
</g>
<!-- slf4j.nop[0] -->
<g id="node30" class="node"><title>slf4j.nop[0]</title>
<ellipse fill="none" stroke="black" cx="3379" cy="-234" rx="52.9443" ry="18"/>
<text text-anchor="middle" x="3379" y="-230.3" font-family="Times,serif" font-size="14.00">slf4j.nop[0]</text>
</g>
<!-- slf4j.nop[0]&#45;&gt;slf4j.api[24] -->
<g id="edge54" class="edge"><title>slf4j.nop[0]&#45;&gt;slf4j.api[24]</title>
<path fill="none" stroke="black" d="M3379.49,-215.697C3379.71,-207.983 3379.98,-198.712 3380.23,-190.112"/>
<polygon fill="black" stroke="black" points="3383.72,-190.2 3380.51,-180.104 3376.73,-190 3383.72,-190.2"/>
</g>
<!-- osgi.enroute.jsonrpc.simple.provider[5]&#45;&gt;org.apache.felix.log[30] -->
<g id="edge63" class="edge"><title>osgi.enroute.jsonrpc.simple.provider[5]&#45;&gt;org.apache.felix.log[30]</title>
<path fill="none" stroke="black" d="M1629.89,-288.144C1679.89,-246.473 1816.06,-137.271 1945,-72 1974.18,-57.2292 2008.42,-45.0338 2037.29,-36.0807"/>
<polygon fill="black" stroke="black" points="2038.31,-39.4287 2046.86,-33.1696 2036.27,-32.7317 2038.31,-39.4287"/>
</g>
<!-- osgi.enroute.jsonrpc.simple.provider[5]&#45;&gt;org.apache.felix.scr[27] -->
<g id="edge62" class="edge"><title>osgi.enroute.jsonrpc.simple.provider[5]&#45;&gt;org.apache.felix.scr[27]</title>
<path fill="none" stroke="black" d="M1569.32,-288.517C1521.11,-269.384 1438.1,-237.689 1365,-216 1314.11,-200.901 1255.79,-187.412 1210.88,-177.821"/>
<polygon fill="black" stroke="black" points="1211.43,-174.361 1200.93,-175.713 1209.98,-181.209 1211.43,-174.361"/>
</g>
<!-- osgi.enroute.jsonrpc.simple.provider[5]&#45;&gt;org.apache.felix.http.jetty[16] -->
<g id="edge61" class="edge"><title>osgi.enroute.jsonrpc.simple.provider[5]&#45;&gt;org.apache.felix.http.jetty[16]</title>
<path fill="none" stroke="black" d="M1719.35,-293.287C1737.59,-291.441 1756.33,-289.613 1774,-288 1969.08,-270.199 2196.36,-253.017 2330.32,-243.256"/>
<polygon fill="black" stroke="black" points="2330.88,-246.724 2340.6,-242.508 2330.37,-239.743 2330.88,-246.724"/>
</g>
<!-- osgi.enroute.jsonrpc.simple.provider[5]&#45;&gt;org.apache.felix.http.servlet&#45;api[17] -->
<g id="edge60" class="edge"><title>osgi.enroute.jsonrpc.simple.provider[5]&#45;&gt;org.apache.felix.http.servlet&#45;api[17]</title>
<path fill="none" stroke="black" d="M1710.6,-292.336C1922.68,-265.638 2413.98,-203.79 2631.3,-176.432"/>
<polygon fill="black" stroke="black" points="2631.96,-179.877 2641.44,-175.156 2631.08,-172.932 2631.96,-179.877"/>
</g>
<!-- osgi.enroute.configurer.simple.provider[3]&#45;&gt;org.apache.felix.log[30] -->
<g id="edge68" class="edge"><title>osgi.enroute.configurer.simple.provider[3]&#45;&gt;org.apache.felix.log[30]</title>
<path fill="none" stroke="black" d="M908.945,-215.851C915.833,-181.625 936.493,-105.282 988,-72 1029.75,-45.0251 1722.55,-27.1773 1993.03,-21.208"/>
<polygon fill="black" stroke="black" points="1993.33,-24.7023 2003.25,-20.9836 1993.18,-17.704 1993.33,-24.7023"/>
</g>
<!-- osgi.enroute.configurer.simple.provider[3]&#45;&gt;org.apache.felix.configadmin[25] -->
<g id="edge66" class="edge"><title>osgi.enroute.configurer.simple.provider[3]&#45;&gt;org.apache.felix.configadmin[25]</title>
<path fill="none" stroke="black" d="M1002.8,-219.42C1090.41,-207.131 1218.82,-189.118 1306.84,-176.77"/>
<polygon fill="black" stroke="black" points="1307.41,-180.224 1316.83,-175.369 1306.44,-173.292 1307.41,-180.224"/>
</g>
<!-- osgi.enroute.configurer.simple.provider[3]&#45;&gt;org.apache.felix.scr[27] -->
<g id="edge67" class="edge"><title>osgi.enroute.configurer.simple.provider[3]&#45;&gt;org.apache.felix.scr[27]</title>
<path fill="none" stroke="black" d="M958.996,-216.941C994.823,-206.084 1042.13,-191.748 1078.97,-180.585"/>
<polygon fill="black" stroke="black" points="1080.03,-183.922 1088.58,-177.673 1078,-177.223 1080.03,-183.922"/>
</g>
<!-- osgi.enroute.configurer.simple.provider[3]&#45;&gt;org.apache.felix.coordinator[4] -->
<g id="edge65" class="edge"><title>osgi.enroute.configurer.simple.provider[3]&#45;&gt;org.apache.felix.coordinator[4]</title>
<path fill="none" stroke="black" d="M928.627,-215.991C953.356,-197.616 994.347,-167.777 1031,-144 1047.53,-133.276 1066.25,-122.106 1082.31,-112.801"/>
<polygon fill="black" stroke="black" points="1084.5,-115.577 1091.43,-107.555 1081.01,-109.509 1084.5,-115.577"/>
</g>
</g>
</svg>
